# xmcd
#
# Track frame offsets: 
#        150
#        22210
#        51237
#        70092
#        89960
#        120257
#        144340
#        168452
#        191515
#        217582
#        238945
#        254197
#        273385
#        296182
#
# Disc length: 4279 seconds
#
# Revision: 2
# Processed by: cddbd v1.5.2PL0 Copyright (c) Steve Scherf et al.
# Submitted via: ExactAudioCopyFreeDBPlugin 1.0
#
DISCID=de10b50e
DTITLE=Various Artist - SONY Audiophile Collection Vol. 5
DYEAR=1995
DGENRE=
TTITLE0=Junior Wells - Sweet Sixteen
TTITLE1=Ron Tutt - Improvisation
TTITLE2=Yello - Fat Cry
TTITLE3=Fantasy Band - Sweet Dreams
TTITLE4=Chuck Loeb - This Life
TTITLE5=Deep Purple - The Mule
TTITLE6=Marcus Miller - Rush Over
TTITLE7=Flim and The BB's - Thunder And Birdies
TTITLE8=Blues Company - Cold Rain
TTITLE9=Thursday Diva - Follow Me
TTITLE10=Mannheim Steamroller - The 7 Metals Of Alchemy
TTITLE11=Christian McBride - Splanky
TTITLE12=Dave Grusin - Fascinating Rhythm
TTITLE13=Michael Ruff - Wishing Well
EXTD=
EXTT0=
EXTT1=
EXTT2=
EXTT3=
EXTT4=
EXTT5=
EXTT6=
EXTT7=
EXTT8=
EXTT9=
EXTT10=
EXTT11=
EXTT12=
EXTT13=
PLAYORDER=
